<?xml version="1.0" encoding="utf-8"?>
<!-- Generator: Adobe Illustrator 21.0.2, SVG Export Plug-In . SVG Version: 6.00 Build 0)  -->
<svg version="1.1" xmlns="http://www.w3.org/2000/svg" xmlns:xlink="http://www.w3.org/1999/xlink" x="0px" y="0px"
	 viewBox="0 0 92 58" style="enable-background:new 0 0 92 58;" xml:space="preserve">
<style type="text/css">
	.st0{display:none;}
	.st1{display:inline;}
	.st2{clip-path:url(#SVGID_2_);fill:url(#SVGID_3_);}
	.st3{display:inline;fill:#31313A;}
	.st4{clip-path:url(#SVGID_5_);fill:url(#SVGID_6_);}
	.st5{clip-path:url(#SVGID_8_);fill:url(#SVGID_9_);}
	.st6{clip-path:url(#SVGID_11_);fill:url(#SVGID_12_);}
	.st7{fill:#31313A;}
</style>
<g id="Capa_1">
	<g class="st0">
		<g class="st1">
			<defs>
				<path id="SVGID_1_" d="M160.6,181.9c16.6,0,9.8-14,2.4-27.9c-0.1-0.3-0.3-0.5-0.4-0.7C155.5,167.5,147.6,181.9,160.6,181.9
					 M162.6,153.3c6.8-13.7,12.9-27.2-1.3-27.2c0,0,0,0,0,0C147.7,126.1,155.3,139.5,162.6,153.3"/>
			</defs>
			<clipPath id="SVGID_2_">
				<use xlink:href="#SVGID_1_"  style="overflow:visible;"/>
			</clipPath>
			
				<linearGradient id="SVGID_3_" gradientUnits="userSpaceOnUse" x1="-350.9337" y1="334.4186" x2="-350.4617" y2="334.4186" gradientTransform="matrix(0 -115.7838 -115.7838 0 38882.6797 -40451.4258)">
				<stop  offset="0" style="stop-color:#92F6D1"/>
				<stop  offset="1" style="stop-color:#F0DC58"/>
			</linearGradient>
			<rect x="147.6" y="126.1" class="st2" width="29.7" height="55.9"/>
		</g>
		<path class="st3" d="M231.8,157.9v-7.7h-2.5v-3.4h2.7v-4.1h3.9v4.1h3.7v3.4h-3.7v6.8c0,1.5,0.6,2.1,2,2.1c0.6,0,1.3-0.2,1.7-0.3
			v3.4c-0.5,0.1-1.6,0.4-2.9,0.4C233.2,162.7,231.8,160.7,231.8,157.9"/>
		<path class="st3" d="M181.3,142.4c0-1.5,0.8-2.4,2.5-2.4c1.6,0,2.5,0.9,2.5,2.4c0,1.5-0.9,2.5-2.5,2.5
			C182.1,144.9,181.3,143.9,181.3,142.4 M181.7,146.8h4v15.6h-4V146.8z"/>
		<path class="st3" d="M189.1,146.8h3.9v1.8h0.1c0.9-1.2,2.3-2,4.4-2c3.4,0,5.7,2.2,5.7,5.6v10.2h-4v-9.1c0-1.9-0.9-3.1-2.9-3.1
			c-1.9,0-3.2,1.3-3.2,3.6v8.6h-4V146.8z"/>
		<path class="st3" d="M206.2,142.4c0-1.5,0.8-2.4,2.5-2.4c1.6,0,2.5,0.9,2.5,2.4c0,1.5-0.9,2.5-2.5,2.5
			C207,144.9,206.2,143.9,206.2,142.4 M206.6,146.8h4v15.6h-4V146.8z"/>
		<path class="st3" d="M213.2,157.8c0-2.8,1.9-4.8,6.3-4.8c1.3,0,2.8,0.2,3.5,0.5v-1.3c0-1.3-0.8-2.3-2.7-2.3c-1.7,0-2.6,0.9-2.6,2
			h-3.8c0-2.9,2.2-5.3,6.5-5.3c4.2,0,6.6,2.4,6.6,5.5v10.3h-3.9v-1.6H223c-0.9,1.1-2.3,1.9-4.3,1.9
			C215.1,162.7,213.2,160.6,213.2,157.8 M222.9,156.6v-0.3c-1-0.4-2-0.5-3.1-0.5c-1.8,0-2.7,0.7-2.7,1.9c0,1.1,0.8,1.9,2.4,1.9
			C221.7,159.5,222.9,158.2,222.9,156.6"/>
		<path class="st3" d="M181.2,171.6h0.7c0,0.7,0.5,1.1,1.4,1.1c0.9,0,1.3-0.3,1.3-0.9c0-0.5-0.4-0.8-1-0.9l-0.8-0.2
			c-0.9-0.2-1.4-0.6-1.4-1.5c0-0.9,0.7-1.5,1.9-1.5c1.2,0,1.9,0.6,1.9,1.6h-0.7c0-0.6-0.4-1-1.2-1c-0.7,0-1.2,0.3-1.2,0.9
			c0,0.4,0.3,0.7,0.9,0.8l0.7,0.2c1,0.2,1.5,0.7,1.5,1.5c0,1-0.8,1.5-2,1.5C181.9,173.3,181.2,172.6,181.2,171.6"/>
		<path class="st3" d="M189.8,169.3v2.5c0,0.9-0.7,1.5-1.6,1.5c-1,0-1.6-0.6-1.6-1.5v-2.5h0.6v2.4c0,0.6,0.3,1,1,1c0.7,0,1-0.4,1-1
			v-2.4H189.8z"/>
		<path class="st3" d="M191.1,171.9h0.6c0,0.5,0.4,0.8,1,0.8c0.6,0,0.9-0.2,0.9-0.6c0-0.3-0.2-0.5-0.6-0.6l-0.8-0.1
			c-0.6-0.1-1-0.5-1-1.1c0-0.7,0.6-1.1,1.4-1.1c0.9,0,1.5,0.5,1.5,1.3h-0.6c0-0.5-0.4-0.7-0.9-0.7c-0.5,0-0.8,0.2-0.8,0.6
			c0,0.3,0.3,0.5,0.7,0.6l0.6,0.1c0.7,0.2,1.1,0.5,1.1,1.1c0,0.7-0.7,1.1-1.6,1.1C191.8,173.3,191.1,172.7,191.1,171.9"/>
		<path class="st3" d="M195.9,172.2v-2.4h-0.7v-0.5h0.7v-0.8l0.6-0.2h0.1v1.1h1v0.5h-1v2.3c0,0.4,0.2,0.5,0.5,0.5c0.2,0,0.3,0,0.4,0
			h0.1v0.6c-0.1,0-0.3,0.1-0.6,0.1C196.2,173.3,195.9,172.9,195.9,172.2"/>
		<path class="st3" d="M198.6,171.2c0-1.1,0.6-2,1.8-2c1.1,0,1.7,0.8,1.7,1.9v0.3h-2.8c0,0.7,0.4,1.3,1.1,1.3c0.5,0,0.9-0.2,1-0.6
			h0.6c-0.1,0.7-0.8,1.2-1.6,1.2C199.2,173.3,198.6,172.4,198.6,171.2 M201.4,170.9c0-0.6-0.3-1.1-1-1.1c-0.7,0-1.1,0.5-1.1,1.1
			H201.4z"/>
		<path class="st3" d="M203.4,169.3h0.6l0.1,0.6h0c0.2-0.4,0.6-0.7,1.2-0.7c0.9,0,1.4,0.5,1.4,1.4v2.6H206v-2.5c0-0.6-0.3-1-0.9-1
			c-0.7,0-1,0.5-1,1.3v2.2h-0.6V169.3z"/>
		<path class="st3" d="M208.6,172.2v-2.4h-0.7v-0.5h0.7v-0.8l0.6-0.2h0.1v1.1h1v0.5h-1v2.3c0,0.4,0.2,0.5,0.5,0.5c0.2,0,0.3,0,0.4,0
			h0.1v0.6c-0.1,0-0.3,0.1-0.6,0.1C208.8,173.3,208.6,172.9,208.6,172.2"/>
		<path class="st3" d="M211.2,172c0-0.7,0.5-1.2,1.6-1.2c0.4,0,0.7,0.1,1,0.1v-0.4c0-0.4-0.3-0.8-0.9-0.8c-0.6,0-0.9,0.3-0.9,0.7
			h-0.6c0-0.8,0.6-1.3,1.5-1.3c1,0,1.5,0.6,1.5,1.4v2.6h-0.5l0-0.6h0c-0.2,0.4-0.7,0.6-1.2,0.6C211.7,173.3,211.2,172.7,211.2,172
			 M213.8,171.7v-0.2c-0.3-0.1-0.6-0.1-1-0.1c-0.6,0-1,0.2-1,0.7c0,0.4,0.3,0.7,0.8,0.7C213.4,172.7,213.8,172.2,213.8,171.7"/>
		<path class="st3" d="M216.7,172.6L216.7,172.6l-0.1,0.5h-0.6v-5.7h0.6v2.3h0c0.2-0.3,0.6-0.6,1.2-0.6c1.1,0,1.7,0.9,1.7,2
			c0,1.3-0.6,2-1.7,2C217.3,173.3,216.9,173,216.7,172.6 M218.9,171.2c0-0.8-0.3-1.5-1.1-1.5c-0.8,0-1.1,0.7-1.1,1.5
			c0,0.8,0.3,1.5,1.1,1.5C218.6,172.7,218.9,172,218.9,171.2"/>
		<path class="st3" d="M220.9,168c0-0.3,0.1-0.4,0.4-0.4c0.3,0,0.4,0.2,0.4,0.4c0,0.3-0.2,0.5-0.4,0.5
			C221,168.5,220.9,168.3,220.9,168 M221,169.3h0.6v3.9H221V169.3z"/>
		<rect x="223.2" y="167.5" class="st3" width="0.6" height="5.7"/>
		<path class="st3" d="M225.4,168c0-0.3,0.1-0.4,0.4-0.4c0.3,0,0.4,0.2,0.4,0.4c0,0.3-0.2,0.5-0.4,0.5
			C225.5,168.5,225.4,168.3,225.4,168 M225.5,169.3h0.6v3.9h-0.6V169.3z"/>
		<path class="st3" d="M227.4,171.2c0-1.2,0.6-2,1.7-2c0.6,0,1,0.3,1.2,0.6h0v-2.3h0.6v5.7h-0.6l-0.1-0.5h0
			c-0.2,0.3-0.6,0.6-1.2,0.6C228.1,173.3,227.5,172.5,227.4,171.2 M230.4,171.2c0-0.8-0.3-1.5-1.1-1.5c-0.8,0-1.1,0.7-1.1,1.5
			c0,0.8,0.3,1.5,1.1,1.5C230,172.7,230.4,172,230.4,171.2"/>
		<path class="st3" d="M232.3,172c0-0.7,0.5-1.2,1.6-1.2c0.4,0,0.7,0.1,1,0.1v-0.4c0-0.4-0.3-0.8-0.9-0.8c-0.6,0-0.9,0.3-0.9,0.7
			h-0.6c0-0.8,0.6-1.3,1.5-1.3c1,0,1.5,0.6,1.5,1.4v2.6H235l0-0.6h0c-0.2,0.4-0.7,0.6-1.2,0.6C232.8,173.3,232.3,172.7,232.3,172
			 M234.9,171.7v-0.2c-0.3-0.1-0.6-0.1-1-0.1c-0.6,0-1,0.2-1,0.7c0,0.4,0.3,0.7,0.8,0.7C234.4,172.7,234.9,172.2,234.9,171.7"/>
		<path class="st3" d="M236.8,171.2c0-1.2,0.6-2,1.7-2c0.6,0,1,0.3,1.2,0.6h0v-2.3h0.6v5.7h-0.6l-0.1-0.5h0
			c-0.2,0.3-0.6,0.6-1.2,0.6C237.5,173.3,236.8,172.5,236.8,171.2 M239.7,171.2c0-0.8-0.3-1.5-1.1-1.5c-0.8,0-1.1,0.7-1.1,1.5
			c0,0.8,0.3,1.5,1.1,1.5C239.4,172.7,239.7,172,239.7,171.2"/>
	</g>
	<g class="st0">
		<g class="st1">
			<defs>
				<path id="SVGID_4_" d="M161.4,82.9c14.3-9.4,9.4-14.1,2.2-20.4C156.9,76.6,150.4,90.2,161.4,82.9 M150.8,40
					c-0.4,11,6.9,17.3,12.8,22.5c4.2-8.9,8.4-18,8.4-22.5c0-7.3-5.1-10.9-10.4-10.9C156.4,29.1,151.1,32.7,150.8,40"/>
			</defs>
			<clipPath id="SVGID_5_">
				<use xlink:href="#SVGID_4_"  style="overflow:visible;"/>
			</clipPath>
			
				<linearGradient id="SVGID_6_" gradientUnits="userSpaceOnUse" x1="-350.0539" y1="334.4735" x2="-349.5819" y2="334.4735" gradientTransform="matrix(0 -119.6588 -119.6588 0 40185.7148 -41802.5352)">
				<stop  offset="0" style="stop-color:#9476FA"/>
				<stop  offset="1" style="stop-color:#E06D8E"/>
			</linearGradient>
			<rect x="150.4" y="29.1" class="st4" width="25.3" height="61.1"/>
		</g>
		<path class="st3" d="M231,60.9v-7.7h-2.5v-3.4h2.7v-4.1h3.9v4.1h3.7v3.4H235V60c0,1.5,0.6,2.1,2,2.1c0.6,0,1.3-0.2,1.7-0.3v3.4
			c-0.5,0.1-1.6,0.4-2.9,0.4C232.5,65.6,231,63.7,231,60.9"/>
		<path class="st3" d="M180.5,45.4c0-1.5,0.8-2.4,2.5-2.4c1.6,0,2.5,0.9,2.5,2.4c0,1.5-0.9,2.5-2.5,2.5
			C181.3,47.8,180.5,46.9,180.5,45.4 M180.9,49.8h4v15.6h-4V49.8z"/>
		<path class="st3" d="M188.3,49.8h3.9v1.8h0.1c0.9-1.2,2.3-2,4.4-2c3.4,0,5.7,2.2,5.7,5.6v10.2h-4v-9.1c0-1.9-0.9-3.1-2.9-3.1
			c-1.9,0-3.2,1.3-3.2,3.6v8.6h-4V49.8z"/>
		<path class="st3" d="M205.4,45.4c0-1.5,0.8-2.4,2.5-2.4c1.6,0,2.5,0.9,2.5,2.4c0,1.5-0.9,2.5-2.5,2.5
			C206.2,47.8,205.4,46.9,205.4,45.4 M205.8,49.8h4v15.6h-4V49.8z"/>
		<path class="st3" d="M212.4,60.8c0-2.8,1.9-4.8,6.3-4.8c1.3,0,2.8,0.2,3.5,0.5v-1.3c0-1.3-0.8-2.3-2.7-2.3c-1.7,0-2.6,0.9-2.6,2
			h-3.8c0-2.9,2.2-5.3,6.5-5.3c4.2,0,6.6,2.4,6.6,5.5v10.3h-3.9v-1.6h-0.1c-0.9,1.1-2.3,1.9-4.3,1.9
			C214.3,65.6,212.4,63.5,212.4,60.8 M222.1,59.6v-0.3c-1-0.4-2-0.5-3.1-0.5c-1.8,0-2.7,0.7-2.7,1.9c0,1.1,0.8,1.9,2.4,1.9
			C220.9,62.5,222.1,61.1,222.1,59.6"/>
		<path class="st3" d="M185,76.1L185,76.1l-0.7,0.1l-0.5-1.4h-2.4l-0.5,1.4h-0.7v-0.1l2-5.3h0.8L185,76.1z M183.6,74.1l-0.9-2.6h0
			l-0.9,2.6H183.6z"/>
		<path class="st3" d="M189.2,72.2v2.5c0,0.9-0.7,1.5-1.6,1.5c-1,0-1.6-0.6-1.6-1.5v-2.5h0.6v2.4c0,0.6,0.3,1,1,1c0.7,0,1-0.4,1-1
			v-2.4H189.2z"/>
		<path class="st3" d="M191.1,75.2v-2.4h-0.7v-0.5h0.7v-0.8l0.6-0.2h0.1v1.1h1v0.5h-1v2.3c0,0.4,0.2,0.5,0.5,0.5c0.2,0,0.3,0,0.4,0
			h0.1v0.6c-0.1,0-0.3,0.1-0.6,0.1C191.4,76.2,191.1,75.8,191.1,75.2"/>
		<path class="st3" d="M193.8,74.2c0-1.1,0.6-2,1.8-2c1.2,0,1.8,0.9,1.8,2c0,1.1-0.5,2-1.8,2C194.3,76.2,193.8,75.3,193.8,74.2
			 M196.7,74.2c0-0.8-0.3-1.5-1.1-1.5c-0.8,0-1.1,0.6-1.1,1.5c0,0.8,0.3,1.5,1.1,1.5C196.4,75.6,196.7,75,196.7,74.2"/>
		<path class="st3" d="M204.4,73.6v2.6h-0.6v-2.5c0-0.6-0.3-1-0.9-1c-0.6,0-1,0.5-1,1.3v2.2h-0.6v-2.5c0-0.6-0.3-1-0.9-1
			c-0.6,0-1,0.5-1,1.3v2.2h-0.6v-3.9h0.6l0.1,0.6h0c0.2-0.4,0.6-0.7,1.2-0.7c0.6,0,1,0.3,1.2,0.7h0c0.2-0.4,0.6-0.7,1.3-0.7
			C203.9,72.1,204.4,72.7,204.4,73.6"/>
		<path class="st3" d="M205.7,75c0-0.7,0.5-1.2,1.6-1.2c0.4,0,0.7,0.1,1,0.1v-0.4c0-0.4-0.3-0.8-0.9-0.8c-0.6,0-0.9,0.3-0.9,0.7
			h-0.6c0-0.8,0.6-1.3,1.5-1.3c1,0,1.5,0.6,1.5,1.4v2.6h-0.5l0-0.6h0c-0.2,0.4-0.7,0.6-1.2,0.6C206.2,76.2,205.7,75.7,205.7,75
			 M208.3,74.6v-0.2c-0.3-0.1-0.6-0.1-1-0.1c-0.6,0-1,0.2-1,0.7c0,0.4,0.3,0.7,0.8,0.7C207.8,75.7,208.3,75.2,208.3,74.6"/>
		<path class="st3" d="M210.8,75.2v-2.4h-0.7v-0.5h0.7v-0.8l0.6-0.2h0.1v1.1h1v0.5h-1v2.3c0,0.4,0.2,0.5,0.5,0.5c0.2,0,0.3,0,0.4,0
			h0.1v0.6c-0.1,0-0.3,0.1-0.6,0.1C211.1,76.2,210.8,75.8,210.8,75.2"/>
		<path class="st3" d="M213.6,71c0-0.3,0.1-0.4,0.4-0.4c0.3,0,0.4,0.2,0.4,0.4c0,0.3-0.2,0.5-0.4,0.5
			C213.8,71.5,213.6,71.3,213.6,71 M213.8,72.2h0.6v3.9h-0.6V72.2z"/>
		<polygon class="st3" points="215.8,75.6 218,72.8 218,72.8 215.8,72.8 215.8,72.2 218.8,72.2 218.8,72.7 216.5,75.6 216.5,75.6 
			218.8,75.6 218.8,76.1 215.8,76.1 		"/>
		<path class="st3" d="M219.8,75c0-0.7,0.5-1.2,1.6-1.2c0.4,0,0.7,0.1,1,0.1v-0.4c0-0.4-0.3-0.8-0.9-0.8c-0.6,0-0.9,0.3-0.9,0.7H220
			c0-0.8,0.6-1.3,1.5-1.3c1,0,1.5,0.6,1.5,1.4v2.6h-0.5l0-0.6h0c-0.2,0.4-0.7,0.6-1.2,0.6C220.3,76.2,219.8,75.7,219.8,75
			 M222.4,74.6v-0.2c-0.3-0.1-0.6-0.1-1-0.1c-0.6,0-1,0.2-1,0.7c0,0.4,0.3,0.7,0.8,0.7C221.9,75.7,222.4,75.2,222.4,74.6"/>
		<path class="st3" d="M224.3,74.2c0-1.2,0.6-2,1.8-2c1.1,0,1.6,0.6,1.6,1.4h-0.6c0-0.5-0.4-0.8-1-0.8c-0.8,0-1.1,0.7-1.1,1.5
			c0,0.8,0.3,1.5,1.1,1.5c0.6,0,0.9-0.3,1-0.8h0.6c-0.1,0.8-0.6,1.4-1.6,1.4C224.9,76.2,224.3,75.4,224.3,74.2"/>
		<path class="st3" d="M229,71c0-0.3,0.1-0.4,0.4-0.4c0.3,0,0.4,0.2,0.4,0.4c0,0.3-0.2,0.5-0.4,0.5C229.1,71.5,229,71.3,229,71
			 M229.1,72.2h0.6v3.9h-0.6V72.2z"/>
		<path class="st3" d="M231,74.2c0-1.1,0.6-2,1.8-2c1.2,0,1.8,0.9,1.8,2c0,1.1-0.5,2-1.8,2C231.6,76.2,231,75.3,231,74.2
			 M233.9,74.2c0-0.8-0.3-1.5-1.1-1.5c-0.8,0-1.1,0.6-1.1,1.5c0,0.8,0.3,1.5,1.1,1.5C233.6,75.6,233.9,75,233.9,74.2 M232.4,71.6
			l0.6-1h0.9v0.1l-0.9,1L232.4,71.6L232.4,71.6z"/>
		<path class="st3" d="M236,72.2h0.6l0.1,0.6h0c0.2-0.4,0.6-0.7,1.2-0.7c0.9,0,1.4,0.5,1.4,1.4v2.6h-0.6v-2.5c0-0.6-0.3-1-0.9-1
			c-0.7,0-1,0.5-1,1.3v2.2H236V72.2z"/>
	</g>
	<g class="st0">
		<path class="st3" d="M222,14.9V7.2h-2.5V3.8h2.7v-4.1h3.9v4.1h3.7v3.4H226v6.8c0,1.5,0.6,2.1,2,2.1c0.6,0,1.3-0.2,1.7-0.3v3.4
			c-0.5,0.1-1.6,0.4-2.9,0.4C223.4,19.7,222,17.7,222,14.9"/>
		<path class="st3" d="M171.4-0.6c0-1.5,0.8-2.4,2.5-2.4c1.6,0,2.5,0.9,2.5,2.4c0,1.5-0.9,2.5-2.5,2.5
			C172.3,1.9,171.4,0.9,171.4-0.6 M171.9,3.8h4v15.6h-4V3.8z"/>
		<path class="st3" d="M179.3,3.8h3.9v1.8h0.1c0.9-1.2,2.3-2,4.4-2c3.4,0,5.7,2.2,5.7,5.6v10.2h-4v-9.1c0-1.9-0.9-3.1-2.9-3.1
			c-1.9,0-3.2,1.3-3.2,3.6v8.6h-4V3.8z"/>
		<path class="st3" d="M196.4-0.6c0-1.5,0.8-2.4,2.5-2.4c1.6,0,2.5,0.9,2.5,2.4c0,1.5-0.9,2.5-2.5,2.5
			C197.2,1.9,196.4,0.9,196.4-0.6 M196.8,3.8h4v15.6h-4V3.8z"/>
		<path class="st3" d="M203.3,14.8c0-2.8,1.9-4.8,6.3-4.8c1.3,0,2.8,0.2,3.5,0.5V9.1c0-1.3-0.8-2.3-2.7-2.3c-1.7,0-2.6,0.9-2.6,2
			H204c0-2.9,2.2-5.3,6.5-5.3c4.2,0,6.6,2.4,6.6,5.5v10.3h-3.9v-1.6h-0.1c-0.9,1.1-2.3,1.9-4.3,1.9
			C205.3,19.7,203.3,17.6,203.3,14.8 M213.1,13.6v-0.3c-1-0.4-2-0.5-3.1-0.5c-1.8,0-2.7,0.7-2.7,1.9c0,1.1,0.8,1.9,2.4,1.9
			C211.9,16.5,213.1,15.2,213.1,13.6"/>
		<path class="st3" d="M171.4,27.5c0-1.7,0.8-2.8,2.4-2.8c1.3,0,2,0.7,2.2,1.9h-0.7c-0.1-0.7-0.6-1.2-1.5-1.2
			c-1.3,0-1.7,1.1-1.7,2.1c0,1.1,0.4,2.1,1.7,2.1c0.9,0,1.3-0.5,1.5-1.2h0.7c-0.1,1.1-0.9,1.8-2.2,1.8
			C172.3,30.2,171.4,29.1,171.4,27.5"/>
		<path class="st3" d="M177.1,28.2c0-1.1,0.6-2,1.8-2c1.2,0,1.8,0.9,1.8,2c0,1.1-0.5,2-1.8,2C177.7,30.2,177.1,29.3,177.1,28.2
			 M180,28.2c0-0.8-0.3-1.5-1.1-1.5c-0.8,0-1.1,0.6-1.1,1.5c0,0.8,0.3,1.5,1.1,1.5C179.7,29.7,180,29.1,180,28.2 M178.5,25.6l0.6-1
			h0.9v0.1l-0.9,1L178.5,25.6L178.5,25.6z"/>
		<path class="st3" d="M187.7,27.6v2.6h-0.6v-2.5c0-0.6-0.3-1-0.9-1c-0.6,0-1,0.5-1,1.3v2.2h-0.6v-2.5c0-0.6-0.3-1-0.9-1
			c-0.6,0-1,0.5-1,1.3v2.2h-0.6v-3.9h0.6l0.1,0.6h0c0.2-0.4,0.6-0.7,1.2-0.7c0.6,0,1,0.3,1.2,0.7h0c0.2-0.4,0.6-0.7,1.3-0.7
			C187.2,26.2,187.7,26.7,187.7,27.6"/>
		<path class="st3" d="M189.3,26.2h0.6l0.1,0.5h0c0.2-0.3,0.6-0.6,1.2-0.6c1,0,1.7,0.8,1.7,2c0,1.2-0.6,2-1.7,2
			c-0.6,0-1-0.3-1.2-0.6h0v2.3h-0.6V26.2z M192.2,28.2c0-0.8-0.3-1.5-1.1-1.5c-0.8,0-1.1,0.7-1.1,1.5c0,0.8,0.3,1.5,1.1,1.5
			C191.9,29.7,192.2,29,192.2,28.2"/>
		<path class="st3" d="M197.4,26.2v2.5c0,0.9-0.7,1.5-1.6,1.5c-1,0-1.6-0.6-1.6-1.5v-2.5h0.6v2.4c0,0.6,0.3,1,1,1c0.7,0,1-0.4,1-1
			v-2.4H197.4z"/>
		<path class="st3" d="M199.3,29.2v-2.4h-0.7v-0.5h0.7v-0.8l0.6-0.2h0.1v1.1h1v0.5h-1v2.3c0,0.4,0.2,0.5,0.5,0.5c0.2,0,0.3,0,0.4,0
			h0.1v0.6c-0.1,0-0.3,0.1-0.6,0.1C199.5,30.2,199.3,29.8,199.3,29.2"/>
		<path class="st3" d="M201.9,28.2c0-1.1,0.6-2,1.8-2c1.2,0,1.8,0.9,1.8,2c0,1.1-0.5,2-1.8,2C202.5,30.2,201.9,29.3,201.9,28.2
			 M204.8,28.2c0-0.8-0.3-1.5-1.1-1.5s-1.1,0.6-1.1,1.5c0,0.8,0.3,1.5,1.1,1.5C204.5,29.7,204.8,29.1,204.8,28.2"/>
		<g class="st1">
			<defs>
				<path id="SVGID_7_" d="M144.2,28c0,6,5.5,10.9,12.3,10.9c9.9,0-0.3-13.9-7.1-27.8C146.6,16.8,144.2,22.7,144.2,28 M144.2-5.4
					c0,4.8,2.3,10.7,5.2,16.5c6.2-12.3,14.7-23.9,7.1-27.5c-0.9-0.4-1.8-0.6-2.6-0.6C148.9-16.9,144.2-10.6,144.2-5.4"/>
			</defs>
			<clipPath id="SVGID_8_">
				<use xlink:href="#SVGID_7_"  style="overflow:visible;"/>
			</clipPath>
			
				<linearGradient id="SVGID_9_" gradientUnits="userSpaceOnUse" x1="-349.793" y1="337.5339" x2="-349.321" y2="337.5339" gradientTransform="matrix(0 120.1502 120.1502 0 -40399.4219 42010.0977)">
				<stop  offset="0" style="stop-color:#9476FA"/>
				<stop  offset="1" style="stop-color:#74CCFC"/>
			</linearGradient>
			<rect x="144.2" y="-16.9" class="st5" width="22.2" height="55.9"/>
		</g>
	</g>
	<g>
		<g>
			<defs>
				<path id="SVGID_10_" d="M1.8,46.4c0.2,5.9,5,10.6,10.8,10.5c8.5-0.2,2.1-11.3-3.9-23.6C4.8,36.2,1.7,39.7,1.8,46.4 M1.8,12.1
					c0,6.1,3.4,13.9,6.9,21.2c6.5-4.8,15.2-8,15.2-21.2c0-7.6-4.9-11-11-11C6.8,1.1,1.8,6,1.8,12.1"/>
			</defs>
			<clipPath id="SVGID_11_">
				<use xlink:href="#SVGID_10_"  style="overflow:visible;"/>
			</clipPath>
			
				<linearGradient id="SVGID_12_" gradientUnits="userSpaceOnUse" x1="-349.6175" y1="335.714" x2="-349.1455" y2="335.714" gradientTransform="matrix(0 -115.9454 -115.9454 0 38937.2969 -40479.125)">
				<stop  offset="0" style="stop-color:#92F6D1"/>
				<stop  offset="1" style="stop-color:#74CCFC"/>
			</linearGradient>
			<rect x="1.7" y="1.1" class="st6" width="22.3" height="56"/>
		</g>
		<path class="st7" d="M82.4,32.9v-7.7h-2.5v-3.4h2.7v-4.1h3.9v4.1h3.7v3.4h-3.7V32c0,1.5,0.6,2.1,2,2.1c0.6,0,1.3-0.2,1.7-0.3v3.4
			c-0.5,0.2-1.6,0.4-2.9,0.4C83.8,37.6,82.4,35.7,82.4,32.9"/>
		<path class="st7" d="M31.9,17.4c0-1.5,0.8-2.4,2.5-2.4c1.6,0,2.5,0.9,2.5,2.4c0,1.5-0.9,2.5-2.5,2.5
			C32.7,19.8,31.9,18.9,31.9,17.4 M32.3,21.8h4v15.6h-4V21.8z"/>
		<path class="st7" d="M39.7,21.8h3.9v1.8h0.1c0.9-1.2,2.3-2,4.4-2c3.4,0,5.7,2.2,5.7,5.6v10.2h-4v-9.1c0-1.9-0.9-3.1-2.9-3.1
			c-1.9,0-3.2,1.3-3.2,3.6v8.6h-4V21.8z"/>
		<path class="st7" d="M56.8,17.4c0-1.5,0.8-2.4,2.5-2.4c1.6,0,2.5,0.9,2.5,2.4c0,1.5-0.9,2.5-2.5,2.5
			C57.6,19.8,56.8,18.9,56.8,17.4 M57.2,21.8h4v15.6h-4V21.8z"/>
		<path class="st7" d="M63.7,32.8c0-2.8,1.9-4.8,6.3-4.8c1.3,0,2.8,0.2,3.5,0.5v-1.3c0-1.3-0.8-2.3-2.7-2.3c-1.7,0-2.6,0.9-2.6,2
			h-3.8c0-2.9,2.2-5.3,6.5-5.3c4.2,0,6.6,2.4,6.6,5.5v10.3h-3.9v-1.6h-0.1c-0.9,1.1-2.3,1.9-4.3,1.9C65.7,37.6,63.7,35.5,63.7,32.8
			 M73.5,31.6v-0.3c-1-0.4-2-0.5-3.1-0.5c-1.8,0-2.7,0.7-2.7,1.9c0,1.1,0.8,1.9,2.4,1.9C72.3,34.5,73.5,33.1,73.5,31.6"/>
		<path class="st7" d="M31.8,46.5h0.7c0,0.7,0.5,1.1,1.4,1.1c0.9,0,1.3-0.3,1.3-0.9c0-0.5-0.4-0.8-1-0.9l-0.8-0.2
			C32.5,45.4,32,45,32,44.2c0-0.9,0.7-1.5,1.9-1.5c1.2,0,1.9,0.6,1.9,1.6h-0.7c0-0.6-0.4-1-1.2-1c-0.7,0-1.2,0.3-1.2,0.9
			c0,0.4,0.3,0.7,0.9,0.8l0.7,0.2c1,0.2,1.5,0.7,1.5,1.5c0,1-0.8,1.5-2,1.5C32.5,48.2,31.8,47.5,31.8,46.5"/>
		<path class="st7" d="M36.9,47c0-0.7,0.5-1.2,1.6-1.2c0.4,0,0.7,0.1,1,0.1v-0.4c0-0.4-0.3-0.8-0.9-0.8c-0.6,0-0.9,0.3-0.9,0.7h-0.6
			c0-0.8,0.6-1.3,1.5-1.3c1,0,1.5,0.6,1.5,1.4v2.6h-0.5l0-0.6h0c-0.2,0.4-0.7,0.6-1.2,0.6C37.5,48.2,36.9,47.7,36.9,47 M39.5,46.6
			v-0.2c-0.3-0.1-0.6-0.1-1-0.1c-0.6,0-1,0.2-1,0.7c0,0.4,0.3,0.7,0.8,0.7C39.1,47.7,39.5,47.2,39.5,46.6"/>
		<rect x="41.8" y="42.4" class="st7" width="0.6" height="5.7"/>
		<path class="st7" d="M47.2,44.2v2.5c0,0.9-0.7,1.5-1.6,1.5c-1,0-1.6-0.6-1.6-1.5v-2.5h0.6v2.4c0,0.6,0.3,1,1,1c0.7,0,1-0.4,1-1
			v-2.4H47.2z"/>
		<path class="st7" d="M48.5,46.2c0-1.2,0.6-2,1.7-2c0.6,0,1,0.3,1.2,0.6h0v-2.3H52v5.7h-0.6l-0.1-0.5h0c-0.2,0.3-0.6,0.6-1.2,0.6
			C49.1,48.2,48.5,47.4,48.5,46.2 M51.4,46.2c0-0.8-0.3-1.5-1.1-1.5c-0.8,0-1.1,0.7-1.1,1.5c0,0.8,0.3,1.5,1.1,1.5
			C51.1,47.6,51.4,47,51.4,46.2"/>
	</g>
</g>
<g id="Capa_2" class="st0">
</g>
</svg>
